<?xml version="1.0" encoding="UTF-8" standalone="no" ?>
<!DOCTYPE svg PUBLIC "-//W3C//DTD SVG 1.1//EN" "http://www.w3.org/Graphics/SVG/1.1/DTD/svg11.dtd">
<svg xmlns="http://www.w3.org/2000/svg" xmlns:xlink="http://www.w3.org/1999/xlink" version="1.1" width="1080" height="1080" viewBox="0 0 1080 1080" xml:space="preserve">
<desc>Created with Fabric.js 5.2.4</desc>
<defs>
</defs>
<rect x="0" y="0" width="100%" height="100%" fill="transparent"></rect>
<g transform="matrix(1 0 0 1 540 540)" id="8c19a7a8-e5fd-4a57-8782-c01004974fbd"  >
</g>
<g transform="matrix(1 0 0 1 540 540)" id="22eb50c3-2150-404b-9d55-910924dc98f2"  >
<rect style="stroke: none; stroke-width: 1; stroke-dasharray: none; stroke-linecap: butt; stroke-dashoffset: 0; stroke-linejoin: miter; stroke-miterlimit: 4; fill: rgb(255,255,255); fill-rule: nonzero; opacity: 1; visibility: hidden;" vector-effect="non-scaling-stroke"  x="-540" y="-540" rx="0" ry="0" width="1080" height="1080" />
</g>
<g transform="matrix(1.55 0 0 -1.55 540 540)" clip-path="url(#CLIPPATH_19)"  >
<clipPath id="CLIPPATH_19" >
	<path transform="matrix(1 0 0 1 -6.44 -229.44) translate(-878.74, -878.74)" d="M 0 1757.48 L 1757.48 1757.48 L 1757.48 0 L 0 0 Z" stroke-linecap="round" />
</clipPath>
<path style="stroke: none; stroke-width: 1; stroke-dasharray: none; stroke-linecap: butt; stroke-dashoffset: 0; stroke-linejoin: miter; stroke-miterlimit: 4; fill: rgb(255,206,27); fill-rule: nonzero; opacity: 1;" vector-effect="non-scaling-stroke"  transform=" translate(-144.72, 153.6)" d="M 0 0 C -22.308 -9.447 -39.639 -18.821 -60.311 -28.371 C -71.676 -33.621 -74.551 -41.899 -74.435 -53.626 C -74.01 -96.626 -74.359 -139.634 -74.372 -182.639 C -74.382 -216.199 -74.206 -243.856 -72.345 -247.1 C -69.677 -251.753 -44.839 -265.369 -15.148 -280.885 C -14.48 -281.234 1.973 -288.622 1.973 -288.622 Z M 135.05 54.904 C 135.17 81.395 138.28 82.974 113.922 67.691 C 78.755 45.626 80.21 51.976 80.21 12.01 C 81.992 -139.268 80.862 -290.578 81.838 -441.869 C 81.838 -470.211 82.502 -466.24 60.605 -454.411 C 2.706 -423.351 -55.521 -392.902 -113.596 -362.168 C -136.376 -350.112 -147.959 -331.321 -147.99 -305.334 C -148.11 -205.471 -148.436 -105.609 -148.533 -5.747 C -148.556 17.873 -138.165 36.416 -119.193 50.147 C -90.937 70.598 -59.177 85.044 -29.031 102.256 C 9.024 123.985 47.44 145.091 85.321 167.119 C 116.308 185.137 148.034 190.207 180.056 171.975 C 249.621 132.37 319.672 93.46 387.551 51.106 C 447.068 13.969 454.269 -54.629 407.202 -105.907 C 392.931 -121.453 378.13 -136.71 362.118 -150.399 C 348.859 -161.734 350.448 -170.697 360.901 -182.392 C 381.029 -204.911 400.952 -227.666 419.868 -251.201 C 435.5 -270.65 438.931 -299.072 425.403 -316.881 C 402.099 -347.557 396.167 -344.112 378.685 -323.798 C 336.805 -277.148 296.379 -229.195 255.272 -181.849 C 245.964 -171.129 247.696 -161.933 257.259 -152.284 C 280.68 -128.653 303.873 -104.79 326.852 -80.727 C 330.583 -76.82 338.25 -67.67 338.955 -63.909 C 340.031 -58.168 339.455 -21.192 339.455 -9.064 C 339.455 2.608 331.492 -6.481 319.337 -18.322 C 288.999 -47.878 258.717 -77.494 228.595 -107.27 C 214.072 -121.625 200.372 -136.833 185.512 -150.822 C 172.574 -163.003 171.847 -173.054 184.307 -186.959 C 232.231 -240.438 279.296 -294.69 326.332 -348.957 C 347.183 -372.432 347.183 -372.432 320.428 -387.594 C 265.457 -419.274 210.016 -450.144 155.11 -481.936 C 134.022 -492.98 135.469 -497.764 135.469 -469.371 C 135.469 -381.616 134.309 -32.092 135.05 54.904" stroke-linecap="round" />
</g>
<g transform="matrix(NaN NaN NaN NaN 0 0)"  >
<g style=""   >
</g>
</g>
</svg>