<svg xmlns="http://www.w3.org/2000/svg" xmlns:xlink="http://www.w3.org/1999/xlink" xmlns:inkscape="http://www.inkscape.org/namespaces/inkscape" version="1.1" width="1757.48" height="1757.48" viewBox="0 0 1757.48 1757.48">
<defs>
<clipPath id="clip_0">
<path transform="matrix(1,0,0,-1,0,1757.48)" d="M0 1757.48H1757.48V0H0Z"/>
</clipPath>
</defs>
<g inkscape:groupmode="layer" inkscape:label="Layer 1">
<g clip-path="url(#clip_0)">
<path transform="matrix(1,0,0,-1,1100.001,1434.1891)" d="M0 0H171.397C177.15 0 181.832 4.676 181.832 10.43V41.676C181.832 47.43 177.15 52.111 171.397 52.111H54.33C53.443 52.111 52.72 52.835 52.72 53.722V250.618C52.72 256.371 48.038 261.053 42.284 261.053H0C-5.753 261.053-10.429 256.371-10.429 250.618V10.43C-10.429 4.676-5.753 0 0 0" fill="#231f20"/>
<path transform="matrix(1,0,0,-1,877.2583,1326.0036)" d="M0 0 32.203 77.766C33.066 79.846 34.944 80.588 36.42 80.588 37.892 80.582 39.776 79.846 40.633 77.766L72.847 .011C73.242-.95 73.143-1.993 72.564-2.852 71.99-3.715 71.069-4.207 70.032-4.207H2.81C1.779-4.207 .857-3.715 .278-2.852-.295-1.993-.394-.95 0 0M-94.077-108.186H-52.128C-47.893-108.186-44.104-105.653-42.487-101.736L-24.103-57.262C-23.037-54.678-20.54-53.01-17.752-53.01H90.223C93.01-53.01 95.507-54.678 96.574-57.256L114.963-101.742C116.586-105.659 120.37-108.186 124.605-108.186H168.007C171.559-108.186 174.833-106.406 176.762-103.429 178.692-100.45 178.981-96.736 177.527-93.497L70.136 146.691C68.461 150.445 64.724 152.867 60.611 152.867H12.979C8.865 152.867 5.122 150.439 3.448 146.68L-103.607-93.509C-105.05-96.748-104.755-100.462-102.825-103.435-100.896-106.412-97.623-108.186-94.077-108.186" fill="#231f20"/>
<path transform="matrix(1,0,0,-1,1328.0625,1434.1891)" d="M0 0H171.397C177.15 0 181.832 4.676 181.832 10.43V41.676C181.832 47.43 177.15 52.111 171.397 52.111H55.529C53.982 52.111 52.72 53.368 52.72 54.915V250.618C52.72 256.371 48.038 261.053 42.285 261.053H0C-5.753 261.053-10.429 256.371-10.429 250.618V10.43C-10.429 4.676-5.753 0 0 0" fill="#231f20"/>
<path transform="matrix(1,0,0,-1,258.0146,1434.1891)" d="M0 0H41.919C47.673 0 52.352 4.676 52.352 10.43V64.533C52.352 65.576 52.763 66.596 53.481 67.344L81.857 96.928 81.86 96.934C82.677 97.785 83.801 98.185 84.954 98.179 86.119 98.133 87.208 97.588 87.946 96.684L163.572 3.842C165.56 1.402 168.503 0 171.655 0H219.183C223.215 0 226.813 2.254 228.575 5.887 230.33 9.52 229.867 13.743 227.364 16.907L130.141 139.785C128.021 142.462 128.171 146.223 130.5 148.726L218.603 243.52C221.471 246.603 222.207 250.925 220.527 254.79 218.841 258.654 215.179 261.053 210.961 261.053H168.323C165.473 261.053 162.715 259.865 160.75 257.797L55.106 146.355C54.414 145.638 53.594 145.875 53.359 145.968 53.122 146.066 52.352 146.448 52.352 147.456V250.618C52.352 256.371 47.673 261.053 41.919 261.053H0C-5.75 261.053-10.429 256.371-10.429 250.618V10.43C-10.429 4.676-5.75 0 0 0" fill="#231f20"/>
<path transform="matrix(1,0,0,-1,588.8237,1232.1306)" d="M0 0C0 3.789 3.082 6.878 6.872 6.878H29.957C47.35 6.878 60.705 3.117 69.651-4.299V-4.305C78.498-11.64 82.989-22.376 82.989-36.218 82.989-49.822 78.498-60.506 69.639-67.963 60.693-75.495 47.344-79.319 29.957-79.319H6.872C3.082-79.319 0-76.236 0-72.447ZM-52.719-202.059H-10.435C-4.682-202.059 0-197.383 0-191.629V-137.206C0-133.417 3.082-130.329 6.872-130.329H35.275L81.818-197.568C83.771-200.378 86.975-202.059 90.399-202.059H133.286C137.185-202.059 140.731-199.909 142.533-196.455 144.335-192.991 144.068-188.853 141.838-185.655L99.322-124.727C98.198-123.121 97.827-121.181 98.279-119.274 98.725-117.38 99.959-115.763 101.668-114.824 114.635-107.721 125.105-98.248 132.782-86.678 142.133-72.593 146.873-55.616 146.873-36.218 146.873-16.843 142.197 .191 132.979 14.41 123.755 28.61 110.44 39.718 93.412 47.43 76.447 55.106 56.209 58.994 33.265 58.994H-52.719C-58.473 58.994-63.148 54.313-63.148 48.56V-191.629C-63.148-197.383-58.473-202.059-52.719-202.059" fill="#231f20"/>
<path transform="matrix(1,0,0,-1,740.4604,495.70619)" d="M0 0C-22.308-9.447-39.639-18.821-60.311-28.371-71.676-33.621-74.551-41.899-74.435-53.626-74.01-96.626-74.359-139.634-74.372-182.639-74.382-216.199-74.206-243.856-72.345-247.1-69.677-251.753-44.839-265.369-15.148-280.885-14.48-281.234 1.973-288.622 1.973-288.622ZM135.05 54.904C135.17 81.395 138.28 82.974 113.922 67.691 78.755 45.626 80.21 51.976 80.21 12.01 81.992-139.268 80.862-290.578 81.838-441.869 81.838-470.211 82.502-466.24 60.605-454.411 2.706-423.351-55.521-392.902-113.596-362.168-136.376-350.112-147.959-331.321-147.99-305.334-148.11-205.471-148.436-105.609-148.533-5.747-148.556 17.873-138.165 36.416-119.193 50.147-90.937 70.598-59.177 85.044-29.031 102.256 9.024 123.985 47.44 145.091 85.321 167.119 116.308 185.137 148.034 190.207 180.056 171.975 249.621 132.37 319.672 93.46 387.551 51.106 447.068 13.969 454.269-54.629 407.202-105.907 392.931-121.453 378.13-136.71 362.118-150.399 348.859-161.734 350.448-170.697 360.901-182.392 381.029-204.911 400.952-227.666 419.868-251.201 435.5-270.65 438.931-299.072 425.403-316.881 402.099-347.557 396.167-344.112 378.685-323.798 336.805-277.148 296.379-229.195 255.272-181.849 245.964-171.129 247.696-161.933 257.259-152.284 280.68-128.653 303.873-104.79 326.852-80.727 330.583-76.82 338.25-67.67 338.955-63.909 340.031-58.168 339.455-21.192 339.455-9.064 339.455 2.608 331.492-6.481 319.337-18.322 288.999-47.878 258.717-77.494 228.595-107.27 214.072-121.625 200.372-136.833 185.512-150.822 172.574-163.003 171.847-173.054 184.307-186.959 232.231-240.438 279.296-294.69 326.332-348.957 347.183-372.432 347.183-372.432 320.428-387.594 265.457-419.274 210.016-450.144 155.11-481.936 134.022-492.98 135.469-497.764 135.469-469.371 135.469-381.616 134.309-32.092 135.05 54.904" fill="#231f20"/>
</g>
</g>
</svg>
